<svg width="68" height="61" viewBox="0 0 68 61" fill="none" xmlns="http://www.w3.org/2000/svg">
<mask id="mask0_180_652" style="mask-type:alpha" maskUnits="userSpaceOnUse" x="0" y="0" width="68" height="61">
<path d="M66.6355 22.685H47.0951C46.7593 22.685 46.4845 22.9598 46.4845 23.2956V26.9594C46.4845 27.2953 46.7593 27.5701 47.0951 27.5701H66.6355C66.9714 27.5701 67.2462 27.2953 67.2462 26.9594V23.2956C67.2462 22.9598 66.9714 22.685 66.6355 22.685ZM56.4073 33.0658H47.0951C46.7593 33.0658 46.4845 33.3406 46.4845 33.6765V37.3403C46.4845 37.6761 46.7593 37.9509 47.0951 37.9509H56.4073C56.7432 37.9509 57.018 37.6761 57.018 37.3403V33.6765C57.018 33.3406 56.7432 33.0658 56.4073 33.0658ZM30.9361 15.8535H27.631C27.1578 15.8535 26.7761 16.2351 26.7761 16.7083V35.6381C26.7761 35.9129 26.9059 36.1648 27.1272 36.3251L38.4927 44.6145C38.8744 44.8893 39.4087 44.813 39.6835 44.4313L41.6452 41.7522V41.7445C41.9199 41.3629 41.836 40.8286 41.4543 40.5538L31.7834 33.562V16.7083C31.791 16.2351 31.4017 15.8535 30.9361 15.8535Z" fill="black"/>
<path d="M55.9345 42.6757H51.5227C51.0952 42.6757 50.6907 42.8971 50.4617 43.2635C49.4923 44.7977 48.3626 46.2174 47.065 47.515C44.8285 49.7515 42.2257 51.5071 39.3328 52.7284C36.333 53.9954 33.1501 54.6366 29.8679 54.6366C26.5781 54.6366 23.3951 53.9954 20.403 52.7284C17.5101 51.5071 14.9073 49.7515 12.6708 47.515C10.4343 45.2786 8.67875 42.6757 7.45747 39.7828C6.1904 36.7907 5.54923 33.6077 5.54923 30.3179C5.54923 27.0281 6.1904 23.8528 7.45747 20.853C8.67875 17.9601 10.4343 15.3573 12.6708 13.1208C14.9073 10.8844 17.5101 9.12877 20.403 7.90749C23.3951 6.64042 26.5857 5.99924 29.8679 5.99924C33.1577 5.99924 36.3407 6.64042 39.3328 7.90749C42.2257 9.12877 44.8285 10.8844 47.065 13.1208C48.3626 14.4184 49.4923 15.8382 50.4617 17.3724C50.6907 17.7388 51.0952 17.9601 51.5227 17.9601H55.9345C56.4612 17.9601 56.797 17.4106 56.5604 16.9449C51.5837 7.04496 41.4929 0.61036 30.2266 0.4806C13.7318 0.274509 0.0305841 13.7773 5.21471e-05 30.2569C-0.0304798 46.767 13.3501 60.1629 29.8603 60.1629C41.2716 60.1629 51.5303 53.7054 56.5604 43.6909C56.797 43.2253 56.4536 42.6757 55.9345 42.6757Z" fill="black"/>
</mask>
<g mask="url(#mask0_180_652)">
<rect x="-1.68115" y="-23.058" width="96.6667" height="96.6667" fill="url(#paint0_linear_180_652)"/>
</g>
<defs>
<linearGradient id="paint0_linear_180_652" x1="-1.68115" y1="-23.058" x2="99.5627" y2="-17.9993" gradientUnits="userSpaceOnUse">
<stop stop-color="#009BCB"/>
<stop offset="1" stop-color="#48B5D8"/>
</linearGradient>
</defs>
</svg>
