<svg width="64" height="60" viewBox="0 0 64 60" fill="none" xmlns="http://www.w3.org/2000/svg">
<mask id="mask0_180_685" style="mask-type:alpha" maskUnits="userSpaceOnUse" x="0" y="0" width="64" height="60">
<path d="M31.8278 17.903C31.8278 17.3755 31.6182 16.8695 31.2452 16.4965C30.8721 16.1234 30.3662 15.9138 29.8386 15.9138C29.311 15.9138 28.805 16.1234 28.432 16.4965C28.0589 16.8695 27.8494 17.3755 27.8494 17.903V33.8169C27.8494 34.3445 28.0589 34.8504 28.432 35.2235C28.805 35.5965 29.311 35.8061 29.8386 35.8061H41.774C42.3016 35.8061 42.8075 35.5965 43.1806 35.2235C43.5536 34.8504 43.7632 34.3445 43.7632 33.8169C43.7632 33.2893 43.5536 32.7833 43.1806 32.4103C42.8075 32.0372 42.3016 31.8277 41.774 31.8277H31.8278V17.903Z" fill="black"/>
<path d="M5.38287 23.0751C3.717 21.9017 2.35815 20.3444 1.42121 18.5349C0.484278 16.7255 -0.00319258 14.717 1.57347e-05 12.6794C1.57347e-05 5.69318 5.62556 0 12.5958 0C16.8806 0 20.6562 2.15633 22.9279 5.4306C25.7958 4.46573 28.8019 3.97525 31.8277 3.97846C34.9309 3.97846 37.9108 4.48372 40.6997 5.41866C41.8579 3.74707 43.4039 2.38098 45.2053 1.4373C47.0068 0.493625 49.01 0.000456322 51.0437 0C52.7012 0.00104439 54.3424 0.328628 55.8733 0.96404C57.4043 1.59945 58.795 2.53024 59.9662 3.70325C61.1374 4.87626 62.066 6.26849 62.699 7.80044C63.332 9.33239 63.657 10.974 63.6554 12.6316C63.6554 16.9284 61.515 20.7198 58.2487 23.0035C59.1756 25.7764 59.6769 28.7444 59.6769 31.8277C59.6863 38.5289 57.2697 45.0071 52.8738 50.0649L59.0961 56.2793C59.4691 56.6528 59.6784 57.1592 59.678 57.6871C59.6777 58.215 59.4676 58.7211 59.0941 59.0941C58.7206 59.4671 58.2142 59.6764 57.6863 59.676C57.1584 59.6757 56.6523 59.4656 56.2793 59.0921L50.065 52.8777C45.0065 57.2722 38.5284 59.6874 31.8277 59.6769C25.1265 59.6863 18.6483 57.2697 13.5904 52.8737L7.37608 59.0961C7.19139 59.281 6.97208 59.4278 6.73068 59.528C6.48927 59.6281 6.23049 59.6798 5.96911 59.68C5.70774 59.6802 5.44889 59.6289 5.20734 59.529C4.96579 59.4292 4.74627 59.2827 4.56132 59.098C4.37637 58.9133 4.22961 58.694 4.12941 58.4526C4.02922 58.2112 3.97756 57.9524 3.97737 57.6911C3.97719 57.4297 4.02848 57.1708 4.12834 56.9293C4.22819 56.6877 4.37464 56.4682 4.55933 56.2833L10.7777 50.0649C6.38314 45.0065 3.96799 38.5284 3.97848 31.8277C3.97848 28.7682 4.47181 25.8282 5.38287 23.0751ZM3.97848 12.6794C3.97848 15.3131 5.13621 17.6723 6.96232 19.2677C9.62993 14.0042 13.894 9.71926 19.1444 7.02596C18.3408 6.07153 17.3384 5.30425 16.2072 4.77784C15.076 4.25142 13.8435 3.9786 12.5958 3.97846C11.4586 3.98367 10.3336 4.21289 9.28497 4.65303C8.23638 5.09316 7.28477 5.73558 6.48452 6.54359C5.68427 7.35159 5.05106 8.30935 4.62107 9.36215C4.19107 10.4149 3.97272 11.5421 3.97848 12.6794ZM56.6613 19.204C58.5073 17.6166 59.6769 15.2654 59.6769 12.6316C59.6785 11.4965 59.4564 10.3722 59.0233 9.32293C58.5903 8.27367 57.9547 7.32002 57.153 6.51645C56.3513 5.71287 55.3991 5.07513 54.3508 4.63966C53.3026 4.20418 52.1788 3.9795 51.0437 3.97846C48.4179 3.97846 46.0666 5.15211 44.4792 7.01403C49.7194 9.69622 53.9797 13.9635 56.6533 19.208L56.6613 19.204ZM7.95694 31.8277C7.95694 38.1586 10.4719 44.2302 14.9485 48.7069C19.4252 53.1835 25.4968 55.6984 31.8277 55.6984C38.1586 55.6984 44.2302 53.1835 48.7069 48.7069C53.1835 44.2302 55.6985 38.1586 55.6985 31.8277C55.6985 25.4968 53.1835 19.4251 48.7069 14.9485C44.2302 10.4719 38.1586 7.95692 31.8277 7.95692C25.4968 7.95692 19.4252 10.4719 14.9485 14.9485C10.4719 19.4251 7.95694 25.4968 7.95694 31.8277Z" fill="black"/>
</mask>
<g mask="url(#mask0_180_685)">
<rect x="-12.6084" y="-23.5358" width="96.6648" height="96.6648" fill="url(#paint0_linear_180_685)"/>
</g>
<defs>
<linearGradient id="paint0_linear_180_685" x1="-12.6084" y1="-23.5358" x2="88.6335" y2="-18.4772" gradientUnits="userSpaceOnUse">
<stop stop-color="#009BCB"/>
<stop offset="1" stop-color="#48B5D8"/>
</linearGradient>
</defs>
</svg>
