<svg width="46" height="27" viewBox="0 0 46 27" fill="none" xmlns="http://www.w3.org/2000/svg">
<g clip-path="url(#clip0_128_298)">
<path d="M36.1214 3.36561e-07V26.9487H28.6377V0L36.1214 3.36561e-07Z" fill="url(#paint0_linear_128_298)"/>
<path d="M46.0001 0H18.7593V7.65588H46.0001V0Z" fill="url(#paint1_linear_128_298)"/>
<path d="M19.2081 0H10.9531L14.7677 8.31559L23.1495 26.9487H31.3816L19.2081 0Z" fill="url(#paint2_linear_128_298)"/>
<path d="M18.7591 26.9487L16.1149 20.943L16.065 20.8403H0L4.88922 26.9487H18.7591Z" fill="url(#paint3_linear_128_298)"/>
<path d="M4.88937 26.9487L0 20.8403L10.9492 0H19.2082L4.88937 26.9487Z" fill="url(#paint4_linear_128_298)"/>
</g>
<defs>
<linearGradient id="paint0_linear_128_298" x1="32.4295" y1="2.53422e-07" x2="32.4295" y2="27" gradientUnits="userSpaceOnUse">
<stop stop-color="#076A89"/>
<stop offset="1" stop-color="#30A4C9"/>
</linearGradient>
<linearGradient id="paint1_linear_128_298" x1="18.7593" y1="3.79848" x2="46.0001" y2="3.79848" gradientUnits="userSpaceOnUse">
<stop stop-color="#076A89"/>
<stop offset="1" stop-color="#48B5D8"/>
</linearGradient>
<linearGradient id="paint2_linear_128_298" x1="10.7901" y1="-3.89318e-07" x2="31.9843" y2="26.398" gradientUnits="userSpaceOnUse">
<stop stop-color="#076A89"/>
<stop offset="1" stop-color="#48B5D8"/>
</linearGradient>
<linearGradient id="paint3_linear_128_298" x1="1.94577" y1="23.9202" x2="18.7592" y2="23.9202" gradientUnits="userSpaceOnUse">
<stop stop-color="#076A89"/>
<stop offset="1" stop-color="#48B5D8"/>
</linearGradient>
<linearGradient id="paint4_linear_128_298" x1="14.4187" y1="-1.11272e-07" x2="2.15348" y2="23.6396" gradientUnits="userSpaceOnUse">
<stop stop-color="#076A89"/>
<stop offset="1" stop-color="#48B5D8"/>
</linearGradient>
<clipPath id="clip0_128_298">
<rect width="46" height="27" fill="white"/>
</clipPath>
</defs>
</svg>
