<svg width="60" height="60" viewBox="0 0 60 60" fill="none" xmlns="http://www.w3.org/2000/svg">
<mask id="mask0_180_670" style="mask-type:alpha" maskUnits="userSpaceOnUse" x="0" y="0" width="60" height="60">
<path d="M50.966 8.81519C50.9451 8.79133 50.9361 8.75852 50.9152 8.73764C50.8944 8.71676 50.8616 8.70782 50.8377 8.68396C45.2588 3.12276 37.7028 0 29.8256 0C21.9483 0 14.3924 3.12276 8.81347 8.68396C8.78961 8.70782 8.75978 8.71378 8.73592 8.73764C8.71206 8.7615 8.7061 8.79133 8.68522 8.81519C4.52835 12.992 1.70193 18.3067 0.562689 24.0884C-0.576556 29.87 0.0224307 35.8596 2.28405 41.3012C4.54567 46.7428 8.36857 51.3925 13.2703 54.6634C18.1719 57.9344 23.9327 59.68 29.8256 59.68C35.7184 59.68 41.4792 57.9344 46.3809 54.6634C51.2826 51.3925 55.1055 46.7428 57.3671 41.3012C59.6287 35.8596 60.2277 29.87 59.0885 24.0884C57.9492 18.3067 55.1228 12.992 50.966 8.81519ZM29.8256 53.6878C26.2533 53.6865 22.727 52.8816 19.508 51.3328C16.2889 49.7839 13.4595 47.5307 11.2293 44.7401H23.2043C24.0338 45.6778 25.0531 46.4286 26.1945 46.9428C27.336 47.457 28.5736 47.7229 29.8256 47.7229C31.0775 47.7229 32.3152 47.457 33.4567 46.9428C34.5981 46.4286 35.6173 45.6778 36.4469 44.7401H48.4218C46.1917 47.5307 43.3623 49.7839 40.1432 51.3328C36.9241 52.8816 33.3979 53.6865 29.8256 53.6878ZM26.843 38.775C26.843 38.1851 27.018 37.6084 27.3457 37.118C27.6734 36.6275 28.1392 36.2452 28.6842 36.0195C29.2292 35.7937 29.8289 35.7346 30.4075 35.8497C30.986 35.9648 31.5175 36.2489 31.9346 36.666C32.3517 37.0831 32.6358 37.6146 32.7508 38.1931C32.8659 38.7717 32.8069 39.3714 32.5811 39.9164C32.3554 40.4613 31.9731 40.9272 31.4826 41.2549C30.9921 41.5826 30.4155 41.7575 29.8256 41.7575C29.0348 41.7567 28.2766 41.4423 27.7175 40.8831C27.1583 40.3239 26.8438 39.5658 26.843 38.775ZM51.9263 38.7809L51.8965 38.775H38.7733C38.7678 36.9305 38.1914 35.1329 37.1234 33.629C36.0553 32.1252 34.5479 30.9889 32.8081 30.3761V20.8796C32.8081 20.0886 32.4939 19.33 31.9346 18.7706C31.3752 18.2113 30.6166 17.8971 29.8256 17.8971C29.0346 17.8971 28.2759 18.2113 27.7166 18.7706C27.1573 19.33 26.843 20.0886 26.843 20.8796V30.3761C25.1033 30.9889 23.5959 32.1252 22.5278 33.629C21.4597 35.1329 20.8834 36.9305 20.8779 38.775H7.75466L7.72484 38.7809C6.94939 36.8668 6.42797 34.8594 6.17391 32.8099H8.94769C9.73871 32.8099 10.4973 32.4956 11.0567 31.9363C11.616 31.377 11.9302 30.6183 11.9302 29.8273C11.9302 29.0363 11.616 28.2777 11.0567 27.7183C10.4973 27.159 9.73871 26.8447 8.94769 26.8447H6.17391C6.70669 22.6052 8.37506 18.5883 11.0027 15.2187L12.9533 17.1723C13.2284 17.4572 13.5575 17.6844 13.9214 17.8407C14.2853 17.997 14.6766 18.0793 15.0727 18.0827C15.4687 18.0862 15.8614 18.0107 16.228 17.8608C16.5945 17.7108 16.9275 17.4893 17.2076 17.2093C17.4876 16.9292 17.7091 16.5962 17.859 16.2297C18.009 15.8631 18.0845 15.4704 18.081 15.0744C18.0776 14.6784 17.9953 14.287 17.839 13.9231C17.6827 13.5592 17.4555 13.2301 17.1706 12.955L15.22 11.0014C18.5891 8.37549 22.6048 6.7082 26.843 6.17563V8.9494C26.843 9.74043 27.1573 10.4991 27.7166 11.0584C28.2759 11.6177 29.0346 11.932 29.8256 11.932C30.6166 11.932 31.3752 11.6177 31.9346 11.0584C32.4939 10.4991 32.8081 9.74043 32.8081 8.9494V6.17563C37.0464 6.7082 41.0621 8.37549 44.4312 11.0014L42.4806 12.955C42.1957 13.2301 41.9685 13.5592 41.8122 13.9231C41.6559 14.287 41.5736 14.6784 41.5702 15.0744C41.5667 15.4704 41.6422 15.8631 41.7921 16.2297C41.9421 16.5962 42.1636 16.9292 42.4436 17.2093C42.7236 17.4893 43.0567 17.7108 43.4232 17.8608C43.7897 18.0107 44.1825 18.0862 44.5785 18.0827C44.9745 18.0793 45.3659 17.997 45.7298 17.8407C46.0937 17.6844 46.4228 17.4572 46.6979 17.1723L48.6485 15.2187C51.2772 18.5879 52.9466 22.6049 53.4802 26.8447H50.7035C49.9125 26.8447 49.1538 27.159 48.5945 27.7183C48.0352 28.2777 47.7209 29.0363 47.7209 29.8273C47.7209 30.6183 48.0352 31.377 48.5945 31.9363C49.1538 32.4956 49.9125 32.8099 50.7035 32.8099H53.4773C53.2232 34.8594 52.7018 36.8668 51.9263 38.7809Z" fill="black"/>
</mask>
<g mask="url(#mask0_180_670)">
<rect width="62" height="62" fill="url(#paint0_linear_180_670)"/>
</g>
<defs>
<linearGradient id="paint0_linear_180_670" x1="0" y1="0" x2="64.9357" y2="3.24454" gradientUnits="userSpaceOnUse">
<stop stop-color="#009BCB"/>
<stop offset="1" stop-color="#48B5D8"/>
</linearGradient>
</defs>
</svg>
