<svg width="69" height="60" viewBox="0 0 69 60" fill="none" xmlns="http://www.w3.org/2000/svg">
<mask id="mask0_180_675" style="mask-type:alpha" maskUnits="userSpaceOnUse" x="0" y="0" width="69" height="60">
<path d="M34.0198 0.0042592C36.5356 0.0042592 38.9484 1.00367 40.7274 2.78262C42.5063 4.56158 43.5057 6.97436 43.5057 9.49019C43.5057 12.006 42.5063 14.4188 40.7274 16.1978C38.9484 17.9767 36.5356 18.9761 34.0198 18.9761C31.5034 18.9761 29.0901 17.9765 27.3107 16.1971C25.5314 14.4178 24.5317 12.0044 24.5317 9.48806C24.5317 6.97167 25.5314 4.55834 27.3107 2.77899C29.0901 0.999632 31.5034 0 34.0198 0V0.0042592ZM34.0198 4.26377C32.6337 4.26377 31.3043 4.81441 30.3242 5.79455C29.344 6.7747 28.7934 8.10406 28.7934 9.49019C28.7934 10.8763 29.344 12.2057 30.3242 13.1858C31.3043 14.166 32.6337 14.7166 34.0198 14.7166C35.4065 14.7166 36.7364 14.1657 37.7169 13.1852C38.6975 12.2047 39.2483 10.8748 39.2483 9.48806C39.2483 8.10136 38.6975 6.77146 37.7169 5.79092C36.7364 4.81037 35.4065 4.25951 34.0198 4.25951V4.26377Z" fill="black"/>
<path d="M4.32811 36.2527C4.32811 36.8176 4.10373 37.3593 3.70432 37.7587C3.30492 38.1581 2.76321 38.3825 2.19836 38.3825C1.63351 38.3825 1.0918 38.1581 0.692394 37.7587C0.292987 37.3593 0.0686035 36.8176 0.0686035 36.2527V25.6636C0.0687411 24.6203 0.451772 23.6133 1.14505 22.8337C1.83832 22.054 2.79362 21.5559 3.82975 21.4339L4.32811 21.4041H16.0716C15.4518 22.4735 15.0738 23.6657 14.9641 24.8969L14.93 25.6636H4.32385V36.2527H4.32811Z" fill="black"/>
<path d="M65.9799 38.3825C66.5448 38.3825 67.0865 38.1581 67.4859 37.7587C67.8853 37.3593 68.1097 36.8176 68.1097 36.2527V25.6636L68.0799 25.1695C67.9588 24.1326 67.4611 23.1762 66.6814 22.4821C65.9016 21.7879 64.8941 21.4043 63.8502 21.4041H51.9917C52.6136 22.4817 53.014 23.717 53.1077 25.0289L53.129 25.6678H63.8502V36.2527C63.8502 36.8176 64.0746 37.3593 64.474 37.7587C64.8734 38.1581 65.4151 38.3825 65.9799 38.3825Z" fill="black"/>
<path d="M44.6092 21.4041C45.6539 21.4033 46.6625 21.7864 47.4431 22.4807C48.2237 23.1749 48.722 24.1318 48.8432 25.1695L48.8687 25.6636V36.2527C48.8687 36.8176 48.6444 37.3593 48.245 37.7587C47.8455 38.1581 47.3038 38.3825 46.739 38.3825C46.1741 38.3825 45.6324 38.1581 45.233 37.7587C44.8336 37.3593 44.6092 36.8176 44.6092 36.2527V25.6636H23.448V36.2527C23.448 36.8176 23.2236 37.3593 22.8242 37.7587C22.4248 38.1581 21.8831 38.3825 21.3182 38.3825C20.7534 38.3825 20.2117 38.1581 19.8123 37.7587C19.4129 37.3593 19.1885 36.8176 19.1885 36.2527V25.6636C19.1886 24.6203 19.5716 23.6133 20.2649 22.8337C20.9582 22.054 21.9135 21.5559 22.9496 21.4339L23.448 21.4041H44.6092Z" fill="black"/>
<path d="M63.4159 10.8234C63.4159 8.66176 62.5572 6.58863 61.0286 5.0601C59.5001 3.53157 57.427 2.67285 55.2653 2.67285C53.1037 2.67285 51.0305 3.53157 49.502 5.0601C47.9735 6.58863 47.1147 8.66176 47.1147 10.8234C47.1147 12.9851 47.9735 15.0582 49.502 16.5868C51.0305 18.1153 53.1037 18.974 55.2653 18.974C57.427 18.974 59.5001 18.1153 61.0286 16.5868C62.5572 15.0582 63.4159 12.9851 63.4159 10.8234ZM51.3743 10.8234C51.3743 9.79145 51.7842 8.80174 52.5139 8.07203C53.2436 7.34231 54.2333 6.93236 55.2653 6.93236C56.2973 6.93236 57.287 7.34231 58.0167 8.07203C58.7464 8.80174 59.1564 9.79145 59.1564 10.8234C59.1564 11.8554 58.7464 12.8451 58.0167 13.5748C57.287 14.3045 56.2973 14.7145 55.2653 14.7145C54.2333 14.7145 53.2436 14.3045 52.5139 13.5748C51.7842 12.8451 51.3743 11.8554 51.3743 10.8234Z" fill="black"/>
<path d="M12.8469 2.67505C15.0085 2.67505 17.0817 3.53377 18.6102 5.0623C20.1387 6.59082 20.9974 8.66395 20.9974 10.8256C20.9974 12.9873 20.1387 15.0604 18.6102 16.5889C17.0817 18.1175 15.0085 18.9762 12.8469 18.9762C10.6852 18.9762 8.61207 18.1175 7.08354 16.5889C5.55501 15.0604 4.69629 12.9873 4.69629 10.8256C4.69629 8.66395 5.55501 6.59082 7.08354 5.0623C8.61207 3.53377 10.6852 2.67505 12.8469 2.67505ZM12.8469 6.93456C11.8149 6.93456 10.8252 7.34451 10.0955 8.07422C9.36575 8.80394 8.9558 9.79365 8.9558 10.8256C8.9558 11.8576 9.36575 12.8473 10.0955 13.577C10.8252 14.3067 11.8149 14.7167 12.8469 14.7167C13.8788 14.7167 14.8685 14.3067 15.5983 13.577C16.328 12.8473 16.7379 11.8576 16.7379 10.8256C16.7379 9.79365 16.328 8.80394 15.5983 8.07422C14.8685 7.34451 13.8788 6.93456 12.8469 6.93456Z" fill="black"/>
<path d="M2.12976 42.6418C1.56491 42.6418 1.0232 42.8662 0.623791 43.2656C0.224385 43.665 0 44.2068 0 44.7716V49.0311C0 51.8553 1.12192 54.5639 3.11895 56.5609C5.11599 58.558 7.82455 59.6799 10.6488 59.6799H57.5034C60.3276 59.6799 63.0362 58.558 65.0332 56.5609C67.0303 54.5639 68.1522 51.8553 68.1522 49.0311V44.7716C68.1522 44.2068 67.9278 43.665 67.5284 43.2656C67.129 42.8662 66.5873 42.6418 66.0224 42.6418H2.12976ZM4.25951 49.0311V46.9014H63.8927V49.0311C63.8927 50.7256 63.2195 52.3508 62.0213 53.549C60.8231 54.7472 59.1979 55.4204 57.5034 55.4204H10.6488C8.95424 55.4204 7.3291 54.7472 6.13088 53.549C4.93266 52.3508 4.25951 50.7256 4.25951 49.0311Z" fill="black"/>
</mask>
<g mask="url(#mask0_180_675)">
<rect x="-2.23193" y="-23.058" width="96.6667" height="96.6667" fill="url(#paint0_linear_180_675)"/>
</g>
<defs>
<linearGradient id="paint0_linear_180_675" x1="-2.23193" y1="-23.058" x2="99.012" y2="-17.9993" gradientUnits="userSpaceOnUse">
<stop stop-color="#009BCB"/>
<stop offset="1" stop-color="#48B5D8"/>
</linearGradient>
</defs>
</svg>
