<svg aria-hidden="true" style="position: absolute; width: 0; height: 0; overflow: hidden;" version="1.1" xmlns="http://www.w3.org/2000/svg" xmlns:xlink="http://www.w3.org/1999/xlink">
<defs>
<symbol id="icon-arrow-right" viewBox="0 0 32 32">
<path d="M19.414 27.414l10-10c0.781-0.781 0.781-2.047 0-2.828l-10-10c-0.781-0.781-2.047-0.781-2.828 0s-0.781 2.047 0 2.828l6.586 6.586h-19.172c-1.105 0-2 0.895-2 2s0.895 2 2 2h19.172l-6.586 6.586c-0.39 0.39-0.586 0.902-0.586 1.414s0.195 1.024 0.586 1.414c0.781 0.781 2.047 0.781 2.828 0z"></path>
</symbol>
<symbol id="icon-gps" viewBox="0 0 22 32">
<path fill="#fff" style="fill: var(--color1, #fff)" d="M11.13 31.25l-0.685-0.771c-0.428-0.428-10.445-12.243-10.445-19.35 0-6.164 4.966-11.13 11.13-11.13s11.13 4.966 11.13 11.13c0 7.106-10.017 18.921-10.445 19.435l-0.685 0.685zM11.13 1.712c-5.223 0-9.418 4.195-9.418 9.418 0 5.479 7.192 14.726 9.418 17.466 2.226-2.74 9.418-11.986 9.418-17.466 0-5.223-4.195-9.418-9.418-9.418z"></path>
<path fill="#fff" style="fill: var(--color1, #fff)" d="M11.131 15.412c-2.397 0-4.281-1.884-4.281-4.281s1.884-4.281 4.281-4.281c2.397 0 4.281 1.884 4.281 4.281s-1.884 4.281-4.281 4.281zM11.131 8.562c-1.456 0-2.569 1.113-2.569 2.569s1.113 2.569 2.569 2.569c1.456 0 2.569-1.113 2.569-2.569s-1.113-2.569-2.569-2.569z"></path>
</symbol>
<symbol id="icon-mail" viewBox="0 0 39 32">
<path fill="#fff" style="fill: var(--color1, #fff)" d="M33.23 0c1.632 0 3.197 0.648 4.352 1.802s1.802 2.719 1.802 4.351v19.692c0 1.632-0.648 3.197-1.802 4.351s-2.719 1.802-4.352 1.802h-27.076c-1.632 0-3.197-0.648-4.351-1.802s-1.802-2.719-1.802-4.351v-19.692c0-1.632 0.648-3.197 1.802-4.351s2.719-1.802 4.351-1.802h27.076zM36.923 9.75l-16.605 9.772c-0.157 0.092-0.332 0.148-0.514 0.165s-0.364-0.008-0.535-0.071l-0.202-0.094-16.605-9.767v16.091c0 0.979 0.389 1.918 1.081 2.611s1.632 1.082 2.611 1.082h27.076c0.979 0 1.919-0.389 2.611-1.082s1.081-1.631 1.081-2.611v-16.096zM33.23 2.462h-27.076c-0.979 0-1.918 0.389-2.611 1.081s-1.081 1.632-1.081 2.611v0.743l17.231 10.136 17.231-10.141v-0.738c0-0.979-0.389-1.918-1.081-2.611s-1.632-1.081-2.611-1.081z"></path>
</symbol>
<symbol id="icon-phone" viewBox="0 0 30 32">
<path fill="#fff" style="fill: var(--color1, #fff)" d="M26.643 30.732h-0.197c-22.753-1.308-25.984-20.507-26.435-26.366-0.036-0.456 0.017-0.914 0.159-1.349s0.366-0.837 0.663-1.185c0.297-0.347 0.659-0.633 1.067-0.84s0.852-0.332 1.307-0.367h6.38c0.464-0 0.917 0.138 1.301 0.399s0.681 0.63 0.853 1.060l1.76 4.331c0.169 0.421 0.212 0.882 0.121 1.327s-0.31 0.853-0.63 1.174l-2.466 2.49c0.385 2.189 1.434 4.208 3.004 5.781s3.585 2.628 5.774 3.019l2.513-2.49c0.326-0.317 0.738-0.531 1.185-0.616s0.909-0.035 1.328 0.141l4.365 1.748c0.424 0.177 0.787 0.476 1.040 0.86s0.387 0.834 0.384 1.294v6.114c0 0.921-0.366 1.805-1.017 2.456s-1.535 1.017-2.456 1.017zM3.485 2.942c-0.307 0-0.602 0.122-0.819 0.339s-0.339 0.512-0.339 0.819v0.093c0.533 6.855 3.949 23.066 24.247 24.224 0.152 0.009 0.305-0.011 0.449-0.061s0.277-0.127 0.391-0.228 0.207-0.224 0.273-0.361c0.067-0.137 0.105-0.286 0.114-0.438v-6.183l-4.365-1.749-3.323 3.3-0.556-0.069c-10.074-1.262-11.44-11.336-11.44-11.44l-0.069-0.556 3.289-3.323-1.737-4.365h-6.114z"></path>
</symbol>
<symbol id="icon-facebook" viewBox="0 0 32 32">
<path d="M29 0h-26c-1.65 0-3 1.35-3 3v26c0 1.65 1.35 3 3 3h13v-14h-4v-4h4v-2c0-3.306 2.694-6 6-6h4v4h-4c-1.1 0-2 0.9-2 2v2h6l-1 4h-5v14h9c1.65 0 3-1.35 3-3v-26c0-1.65-1.35-3-3-3z"></path>
</symbol>
<symbol id="icon-instagram" viewBox="0 0 32 32">
<path d="M16 2.881c4.275 0 4.781 0.019 6.462 0.094 1.563 0.069 2.406 0.331 2.969 0.55 0.744 0.288 1.281 0.638 1.837 1.194 0.563 0.563 0.906 1.094 1.2 1.838 0.219 0.563 0.481 1.412 0.55 2.969 0.075 1.688 0.094 2.194 0.094 6.463s-0.019 4.781-0.094 6.463c-0.069 1.563-0.331 2.406-0.55 2.969-0.288 0.744-0.637 1.281-1.194 1.837-0.563 0.563-1.094 0.906-1.837 1.2-0.563 0.219-1.413 0.481-2.969 0.55-1.688 0.075-2.194 0.094-6.463 0.094s-4.781-0.019-6.463-0.094c-1.563-0.069-2.406-0.331-2.969-0.55-0.744-0.288-1.281-0.637-1.838-1.194-0.563-0.563-0.906-1.094-1.2-1.837-0.219-0.563-0.481-1.413-0.55-2.969-0.075-1.688-0.094-2.194-0.094-6.463s0.019-4.781 0.094-6.463c0.069-1.563 0.331-2.406 0.55-2.969 0.288-0.744 0.638-1.281 1.194-1.838 0.563-0.563 1.094-0.906 1.838-1.2 0.563-0.219 1.412-0.481 2.969-0.55 1.681-0.075 2.188-0.094 6.463-0.094zM16 0c-4.344 0-4.887 0.019-6.594 0.094-1.7 0.075-2.869 0.35-3.881 0.744-1.056 0.412-1.95 0.956-2.837 1.85-0.894 0.888-1.438 1.781-1.85 2.831-0.394 1.019-0.669 2.181-0.744 3.881-0.075 1.713-0.094 2.256-0.094 6.6s0.019 4.887 0.094 6.594c0.075 1.7 0.35 2.869 0.744 3.881 0.413 1.056 0.956 1.95 1.85 2.837 0.887 0.887 1.781 1.438 2.831 1.844 1.019 0.394 2.181 0.669 3.881 0.744 1.706 0.075 2.25 0.094 6.594 0.094s4.888-0.019 6.594-0.094c1.7-0.075 2.869-0.35 3.881-0.744 1.050-0.406 1.944-0.956 2.831-1.844s1.438-1.781 1.844-2.831c0.394-1.019 0.669-2.181 0.744-3.881 0.075-1.706 0.094-2.25 0.094-6.594s-0.019-4.887-0.094-6.594c-0.075-1.7-0.35-2.869-0.744-3.881-0.394-1.063-0.938-1.956-1.831-2.844-0.887-0.887-1.781-1.438-2.831-1.844-1.019-0.394-2.181-0.669-3.881-0.744-1.712-0.081-2.256-0.1-6.6-0.1v0z"></path>
<path d="M16 7.781c-4.537 0-8.219 3.681-8.219 8.219s3.681 8.219 8.219 8.219 8.219-3.681 8.219-8.219c0-4.537-3.681-8.219-8.219-8.219zM16 21.331c-2.944 0-5.331-2.387-5.331-5.331s2.387-5.331 5.331-5.331c2.944 0 5.331 2.387 5.331 5.331s-2.387 5.331-5.331 5.331z"></path>
<path d="M26.462 7.456c0 1.060-0.859 1.919-1.919 1.919s-1.919-0.859-1.919-1.919c0-1.060 0.859-1.919 1.919-1.919s1.919 0.859 1.919 1.919z"></path>
</symbol>
<symbol id="icon-close" viewBox="0 0 32 32">
<path fill="#fff" style="fill: var(--color1, #fff)" d="M2 0l28.070 28.070-1.754 1.754-28.070-28.070 1.754-1.754z"></path>
<path fill="#000" style="fill: var(--color2, #000)" opacity="0.5" d="M2 0l28.070 28.070-1.754 1.754-28.070-28.070 1.754-1.754z"></path>
<path fill="#fff" style="fill: var(--color1, #fff)" d="M29.824 2l-28.070 28.070-1.754-1.754 28.070-28.070 1.754 1.754z"></path>
<path fill="#000" style="fill: var(--color2, #000)" opacity="0.5" d="M29.824 2l-28.070 28.070-1.754-1.754 28.070-28.070 1.754 1.754z"></path>
</symbol>
<symbol id="icon-burger-button" viewBox="0 0 58 32">
<path d="M0 0h58.435v4.174h-58.435v-4.174z"></path>
<path d="M22.261 13.913h36.174v4.174h-36.174v-4.174z"></path>
<path d="M9.739 27.826h48.696v4.174h-48.696v-4.174z"></path>
</symbol>
</defs>
</svg>
